<?xml version="1.0" encoding="UTF-8" standalone="no"?><!DOCTYPE svg PUBLIC "-//W3C//DTD SVG 1.1//EN" "http://www.w3.org/Graphics/SVG/1.1/DTD/svg11.dtd"><svg width="100%" height="100%" viewBox="0 0 752 454" version="1.1" xmlns="http://www.w3.org/2000/svg" xmlns:xlink="http://www.w3.org/1999/xlink" xml:space="preserve" xmlns:serif="http://www.serif.com/" style="fill-rule:evenodd;clip-rule:evenodd;stroke-linejoin:round;stroke-miterlimit:2;"><path d="M137.049,311.182c-10.42,-6.391 -18.966,-13.046 -27.202,-20.489c-1.87,-1.69 -13.005,-13.767 -15.486,-18.042c-3.809,-6.563 -14.127,-23.86 -10.675,-42.47c1.42,-7.651 1.756,-7.828 2.356,-8.144c1.281,-0.674 1.946,0.638 2.024,0.794c0.229,0.452 0.128,1.673 2.359,5.734c8.525,15.52 15.22,20.584 22.745,27.929c3.797,3.706 12.561,10.105 23.889,16.858c-0.014,-52.055 -0.181,-53.005 -0.174,-59.279c0.018,-15.289 -1.264,-16.834 3.634,-19.796c2.042,-1.235 12.986,-9.145 14.105,-9.954c24.058,-17.388 27.353,-19.062 28.463,-20.21c3.448,-3.567 -0.02,-13.914 2.697,-16.965c1.101,-1.236 1.235,-1.087 17.179,-11.531c15.218,-9.969 15.373,-9.719 16.689,-10.598c9.589,-6.404 11.637,-6.071 11.62,-10.973c-0.015,-4.268 -2.349,-2.566 -5.92,-0.219c-4.577,3.008 -4.675,2.817 -9.241,5.832c-2.406,1.589 -27.746,17.747 -28.706,18.169c-2.819,1.239 -2.883,-2.274 -2.888,-2.584c-0.341,-18.839 -0.068,-19.342 0.726,-20.806c1.304,-2.403 25.226,-17.095 31.366,-21.288c11.762,-8.032 12.018,-7.646 12.917,-8.496c1.099,-1.039 2.217,-4.68 1.031,-5.966c-1.471,-1.595 -1.837,-0.874 -3.619,0.381c-6.178,4.351 -17.512,10.79 -23.062,14.698c-4.227,2.977 -11.195,7.132 -13.1,8.4c-1.151,0.766 -6.237,5.489 -6.149,-0.286c0.186,-12.142 0.063,-12.117 0.03,-24.249c-0.059,-21.388 -0.239,-21.575 0.845,-23.07c1.594,-2.199 14.382,-10.074 20.406,-14.631c16.753,-12.673 31.065,-21.861 37.953,-27.22c4.199,-3.268 12.247,-8.79 13.328,-9.532c3.502,-2.403 4.698,-3.912 7.682,-2.819c2.208,0.808 13.885,8.448 15.067,9.222c28.366,18.559 35.635,22.449 36.301,22.886c22.01,14.45 22.166,14.147 24.057,15.432c4.554,3.093 4.621,2.923 9.208,5.909c18.351,11.946 19.511,11.332 20.042,14.721c0.264,1.685 -0.11,72.11 0.014,75.798c0.008,0.232 0.071,2.102 1.533,2.458c0.618,0.15 2.713,-0.988 6.051,-2.264c10.532,-4.027 31.041,-14.241 34.595,-15.789c7.905,-3.445 9.623,-4.646 12.307,-4.033c2.304,0.526 31.11,15.156 63.507,30.632c12.778,6.104 13.567,5.957 14.081,8.669c0.257,1.355 0.338,23.986 0.395,47.913l0,121.485c4.712,0.029 8.219,0.076 9.949,0.161c0.132,0.006 40.896,0.247 63.928,1.674c3.374,0.209 9.021,0.513 9.805,0.555c0.982,0.053 10.36,0.801 16.925,1.233c7.769,0.512 7.685,1.129 15.488,1.49c0.516,0.024 19.157,2.077 32.139,4.285c28.604,4.867 51.178,9.359 87.504,23.573c5.436,2.127 5.402,2.13 10.91,4.114c0.191,0.069 2.146,0.773 2.347,0.97c0.077,0.075 0.498,0.488 0.555,1.026c0.041,0.393 -0.112,0.852 -0.735,1.294c-1.198,0.85 -94.964,-23.35 -195.532,-14.844c-2.637,0.223 -39.173,5.543 -41.737,5.804c-1.216,0.124 -2.088,0.121 -3.287,-0.376c-1.615,-0.67 -3.822,-2.239 -8.259,-5.611c-3.208,-2.437 -7.581,-5.817 -13.738,-10.48c-3.705,-2.806 -3.435,-3.918 -3.417,-12.918l0.004,-1.997c0.039,-19.963 0.24,-129.125 -0.169,-158.697c-0.069,-4.983 -2.673,-5.144 -8.889,-8.041c-12.568,-5.857 -22.956,-11.224 -34.886,-16.634c-10.191,-4.621 -10.079,-4.842 -10.969,-5.234c-0.239,-0.106 -2.488,-1.097 -3.113,1.003c-0.268,0.901 -0.031,100.583 -0.159,130.475c-0.068,15.963 0.203,17.654 -2.549,18.433c-2.824,0.799 -5.549,-1.339 -6.165,-1.72c-2.795,-1.732 -17.904,-13.487 -19.807,-15.039c-13.404,-10.934 -13.915,-10.242 -27.366,-21.123c-6.362,-5.146 -6.625,-4.771 -12.915,-9.987c-12.616,-10.46 -16.82,-11.54 -17.362,-16.026c-0.317,-2.624 -0.224,-59.987 -0.215,-65.203c0.009,-5.586 2.762,-5.377 7.756,-7.97c5.469,-2.839 6.407,-2.817 6.816,-5.585c0.503,-3.4 0.147,-76.409 0.062,-77.448c-0.266,-3.244 -0.798,-3.446 -17.357,-13.491c-5.935,-3.77 -10.918,-6.419 -13.961,-8.539c-0.28,-0.195 -3.983,-2.774 -4.183,0.849c-0.137,2.48 -0.145,80.895 -0.146,87.929l-0.134,78.831c0.001,9.049 0.531,9.729 -4.139,13.777c-7.635,6.617 -9.854,8.26 -10.753,8.925c-2.778,2.057 -2.931,3.927 -5.036,1.961c-0.892,-0.833 -0.047,-3.412 -0.146,-6.461c-0.196,-6.062 -0.114,-6.048 -0.133,-75.809c-0.032,-120.731 -0.027,-120.73 -0.04,-121.291c-0.11,-4.918 -1.366,-4.522 -5.415,-7.273c-0.504,-0.342 -10.071,-6.354 -10.34,-6.501c-5.407,-2.965 -9.704,-5.862 -10.521,-6.414c-2.281,-1.538 -3.213,-0.718 -3.166,2.013c0.053,3.049 0.294,3.034 0.262,24.252c-0.214,143.688 0.05,214.062 -0.123,219.823c-0.137,4.557 -1.294,4.437 -7.42,9.511c-12.82,10.619 -19.356,15.593 -21.076,16.902c-3.466,2.638 -4.058,4.477 -6.595,3.969c-1.126,-0.225 -1.028,-0.508 -1.035,-1.657c-0.032,-4.846 0.381,-4.81 0.209,-60.571c-0.084,-27.313 0.299,-27.288 0.031,-54.58c-0.21,-21.329 0.617,-24.412 -2.355,-25.248c-1.509,-0.424 -16.627,-1.346 -18.074,-1.434c-5.331,-0.325 -9.084,-1.746 -9.558,2.364c-0.235,2.038 -0.029,103.544 -0.049,145.765c-0.005,10.312 -0.024,17.087 -0.065,18.014c-0.123,2.726 -0.14,4.104 -6.89,9.204c-1.202,0.908 -2.699,2.04 -7.728,6.04c-3.633,2.891 -9.11,7.279 -17.651,14.163c-1.002,0.808 -12.162,9.803 -12.551,10.077c-3.251,2.289 -13.462,10.974 -15.185,12.098c-3.153,2.057 -3.758,3.072 -4.537,3.163c-2.548,0.298 -2.355,-2.907 -2.336,-3.225c0.304,-5.065 0.259,-5.198 0.295,-60.513Zm142.988,140.278c-4.241,0.118 -27.665,2.341 -71.224,1.55c-0.251,-0.005 -25.663,-0.979 -33.436,-1.893c-17.488,-2.057 -17.482,-1.885 -34.871,-4.597c-13.853,-2.16 -16.605,-2.71 -33.189,-6.89c-31.363,-7.904 -50.701,-16.988 -69.35,-29.166c-2.271,-1.483 -16.131,-12.454 -19.485,-16.582c-5.149,-6.338 -19.016,-22.994 -18.465,-43.355c0.226,-8.37 0.554,-8.615 1.139,-9.051c1.248,-0.931 2.175,0.352 2.285,0.504c0.319,0.442 0.416,1.757 3.468,5.7c11.663,15.068 19.629,19.329 28.859,25.875c8.544,6.06 36.378,18.95 65.311,25.812c0.654,0.155 13.533,3.879 42.625,8.166c10.019,1.476 47.981,5.874 75.706,5.885c18.22,0.007 18.201,0.53 36.395,-0.098c6.822,-0.236 6.806,-0.093 13.64,-0.543c11.126,-0.734 15.836,-0.25 31.806,-1.84c7.117,-0.709 19.045,-0.462 83.373,-9.098c29.22,-3.923 79.286,-12.273 87.975,-13.211c0.141,-0.015 43.512,-6.593 68.233,-8.936c3.621,-0.343 9.675,-0.967 10.516,-1.054c1.052,-0.108 11.147,-0.885 18.197,-1.526c8.344,-0.758 8.358,-0.088 16.713,-1.013c0.553,-0.061 20.711,-1.004 34.88,-0.832c31.221,0.379 55.969,1.369 96.964,10.39c6.134,1.35 6.099,1.359 12.286,2.545c0.215,0.041 2.411,0.462 2.658,0.638c0.163,0.116 1.593,1.134 0.198,2.496c-1.131,1.104 -1.442,-0.43 -25.691,-0.347c-23.449,0.08 -23.419,0.328 -39.449,1.37c-18.3,1.19 -18.31,0.927 -40.881,3.76c-6.075,0.762 -6.073,0.601 -12.129,1.483c-3.97,0.578 -38.513,4.881 -72.673,11.106c-20.487,3.734 -20.444,3.806 -40.908,7.712c-1.588,0.303 -1.554,0.409 -19.79,4.075c-117.632,23.648 -140.457,24.56 -159.166,27.437c-1.43,0.22 -15.335,1.528 -16.669,1.654c-7.602,0.715 -7.633,0.072 -15.204,1.151c-3.707,0.528 -10.212,0.704 -10.645,0.727Zm-109.085,-57.54c-2.159,-0.25 -9.886,-1.22 -10.633,-1.287c-5.369,-0.482 -5.359,-0.346 -10.743,-0.808c-3.483,-0.299 -2.925,-2.416 -1.348,-3.346c4.526,-2.67 9.595,-7.247 15.31,-11.918c8.66,-7.078 8.902,-6.744 16.836,-13.468c7.163,-6.071 60.647,-48.689 62.244,-49.858c10.277,-7.525 10.105,-8.488 22.7,-18.255c7.067,-5.48 7.013,-5.526 7.638,-5.987c9.656,-7.128 9.104,-7.791 18.686,-14.975c6.346,-4.757 26.257,-20.861 28.791,-22.76c4.285,-3.213 5.645,-6.276 9.645,-3.834c1.471,0.898 2.304,1.407 16.855,13.423c4.267,3.524 17.138,12.798 20.715,15.778c6.136,5.11 31.873,24.727 32.362,25.124c5.074,4.12 5.049,4.096 10.242,8.066c7.102,5.43 7.046,5.476 7.672,5.935c8.693,6.374 8.405,6.883 9.328,7.022c0.24,0.036 2.246,-1.043 2.304,-1.227c0.016,-0.049 -0.048,-6.73 -0.005,-7.477c0.242,-4.166 3.186,-3.397 14.225,-3.375c13.956,0.028 14.456,-0.46 15.877,1.511c1.137,1.577 0.387,27.955 0.635,33.768c0.142,3.334 0.371,3.72 16.898,16.593c1.697,1.322 1.647,1.345 3.315,2.67c4.541,3.609 5.25,3.305 5.186,4.987c-0.067,1.763 -0.754,1.374 -2.502,1.499c-5.368,0.384 -5.322,0.587 -10.652,1.174c-20.058,2.209 -20.823,4.826 -26.01,0.731c-16.756,-13.227 -22.405,-17.001 -28.308,-21.864c-5.409,-4.456 -5.517,-4.263 -10.985,-8.628c-6.944,-5.544 -14.61,-11.433 -22.234,-17.333c-8.528,-6.599 -8.47,-6.62 -21.933,-17.272c-20.837,-16.488 -28.429,-22.018 -30.956,-23.859c-0.756,-0.55 -2.698,-2.886 -5.077,-2.422c-0.827,0.161 -4.193,2.786 -15.463,11.768l-49.814,39.688c-34.216,27.313 -34.36,27.126 -37.316,29.524c-17.825,14.459 -17.896,14.319 -37.091,29.452c-3.155,2.488 -3.692,1.96 -16.394,1.242Zm183.529,-17.635c-0.093,1.991 0.218,3.798 -1.291,5.043c-0.447,0.369 -0.489,0.769 -17.036,0.496c-4.213,-0.069 -5.473,0.141 -5.68,-4.055c-0.264,-5.349 -0.353,-16.724 -0.061,-18.076c0.563,-2.604 1.968,-2.147 19.368,-2.18c3.605,-0.007 4.622,-0.009 4.703,3.603c0.091,4.094 0.007,13.956 -0.004,15.169Zm-29.838,-13.657c0.101,16.133 0.465,17.995 -1.875,18.821c-1.874,0.662 -19.849,0.322 -19.867,0.316c-2.453,-0.809 -2.204,-1.352 -2.255,-3.935c-0.029,-1.471 -0.331,-16.739 0.14,-18.389c0.65,-2.28 2.264,-1.957 18.681,-1.904c3.78,0.012 4.953,-0.235 5.157,3.532c0.028,0.519 -0.009,1.04 0.019,1.559Zm29.977,-21.212c-0.025,5.789 0.429,9.853 -1.835,10.543c-1.106,0.337 -19.642,0.56 -21.079,-0.147c-1.36,-0.669 -1.498,-2.572 -1.517,-2.828c-0.209,-2.87 -0.098,-17.548 0.004,-18.156c0.051,-0.303 0.366,-2.175 2.948,-2.459c1.324,-0.146 1.319,0.069 16.646,0.043c0.049,-0 4.08,-0.517 4.695,2.358c0.156,0.73 0.133,9.336 0.137,10.647Zm-54.031,-4.545c-0.015,-4.954 -0.865,-8.514 3.727,-8.586c1.333,-0.021 10.973,-0.173 16.659,0.068c2.655,0.112 3.187,0.008 3.848,2.564c0.068,0.262 0.082,13.695 0.046,15.04c-0.107,3.993 -0.322,5.647 -2.357,6.13c-1.46,0.346 -17.741,0.22 -18.227,0.189c-4.67,-0.301 -3.713,-2.515 -3.696,-15.404Z" style="fill:#08a5a1;"/></svg>